<svg width="500" height="500" viewBox="0 0 500 500" fill="none" xmlns="http://www.w3.org/2000/svg">
<circle cx="250" cy="250" r="250" fill="black"/>
<path d="M152.761 397.568C165.883 397.568 176.521 407.699 176.521 420.196C176.521 432.694 165.883 442.826 152.761 442.826C139.638 442.826 129 432.694 129 420.196C129 407.699 139.638 397.568 152.761 397.568ZM153.354 405.138C145.35 405.138 138.861 411.627 138.861 419.631C138.861 427.635 145.35 434.123 153.354 434.123C161.357 434.123 167.847 427.635 167.847 419.631C167.847 411.627 161.357 405.138 153.354 405.138Z" fill="white"/>
<path d="M145.972 407.548C141.901 410.031 139.183 414.514 139.183 419.631C139.183 419.821 139.188 420.01 139.195 420.198H129V73.972H145.972V407.548Z" fill="white"/>
<path d="M347.37 320.626C359.868 320.626 369.999 330.757 369.999 343.255C369.999 355.753 359.868 365.885 347.37 365.885C334.872 365.885 324.741 355.753 324.741 343.255C324.741 330.757 334.873 320.626 347.37 320.626ZM347.937 328.547C340.125 328.547 333.793 334.879 333.793 342.69C333.793 350.501 340.126 356.833 347.937 356.833C355.747 356.833 362.079 350.501 362.079 342.69C362.079 334.879 355.748 328.547 347.937 328.547Z" fill="white"/>
<path d="M264.774 60.3947C277.272 60.3947 287.403 70.526 287.403 83.0236C287.403 95.5213 277.272 105.652 264.774 105.652C252.277 105.652 242.146 95.5212 242.146 83.0236C242.146 70.526 252.277 60.3948 264.774 60.3947ZM265.34 68.3146C257.529 68.3149 251.197 74.6464 251.197 82.4572C251.197 90.2681 257.529 96.6005 265.34 96.6007C273.151 96.6007 279.483 90.2683 279.483 82.4572C279.483 74.6463 273.151 68.3146 265.34 68.3146Z" fill="white"/>
<rect x="129" y="57" width="98.4366" height="16.9718" fill="white"/>
<rect x="256.854" y="101.127" width="16.9718" height="204.794" fill="white"/>
<rect x="273.826" y="288.945" width="96.1738" height="16.9718" fill="white"/>
<rect x="168.601" y="101.127" width="58.8357" height="16.9718" fill="white"/>
<rect x="168.601" y="109.047" width="16.9718" height="282.864" fill="white"/>
<rect x="210.464" y="109.047" width="16.9718" height="242.132" fill="white"/>
<rect x="224.042" y="334.205" width="105.225" height="16.9718" fill="white"/>
<rect x="185.573" y="374.938" width="184.427" height="16.9718" fill="white"/>
<rect x="353.028" y="391.91" width="16.9718" height="37.3381" fill="white"/>
<rect x="210.464" y="412.276" width="142.563" height="16.9718" fill="white"/>
<path d="M152.761 397.568C165.883 397.568 176.521 407.699 176.521 420.196C176.521 432.694 165.883 442.826 152.761 442.826C139.638 442.826 129 432.694 129 420.196C129 407.699 139.638 397.568 152.761 397.568ZM153.354 405.138C145.35 405.138 138.861 411.627 138.861 419.631C138.861 427.635 145.35 434.123 153.354 434.123C161.357 434.123 167.847 427.635 167.847 419.631C167.847 411.627 161.357 405.138 153.354 405.138Z" fill="white"/>
<path d="M145.972 407.548C141.901 410.031 139.183 414.514 139.183 419.631C139.183 419.821 139.188 420.01 139.195 420.198H129V73.972H145.972V407.548Z" fill="white"/>
<path d="M347.37 320.626C359.868 320.626 369.999 330.757 369.999 343.255C369.999 355.753 359.868 365.885 347.37 365.885C334.872 365.885 324.741 355.753 324.741 343.255C324.741 330.757 334.873 320.626 347.37 320.626ZM347.937 328.547C340.125 328.547 333.793 334.879 333.793 342.69C333.793 350.501 340.126 356.833 347.937 356.833C355.747 356.833 362.079 350.501 362.079 342.69C362.079 334.879 355.748 328.547 347.937 328.547Z" fill="white"/>
<path d="M264.774 60.3947C277.272 60.3947 287.403 70.526 287.403 83.0236C287.403 95.5213 277.272 105.652 264.774 105.652C252.277 105.652 242.146 95.5212 242.146 83.0236C242.146 70.526 252.277 60.3948 264.774 60.3947ZM265.34 68.3146C257.529 68.3149 251.197 74.6464 251.197 82.4572C251.197 90.2681 257.529 96.6005 265.34 96.6007C273.151 96.6007 279.483 90.2683 279.483 82.4572C279.483 74.6463 273.151 68.3146 265.34 68.3146Z" fill="white"/>
<rect x="129" y="57" width="98.4366" height="16.9718" fill="white"/>
<rect x="256.854" y="101.127" width="16.9718" height="204.794" fill="white"/>
<rect x="273.826" y="288.945" width="96.1738" height="16.9718" fill="white"/>
<rect x="168.601" y="101.127" width="58.8357" height="16.9718" fill="white"/>
<rect x="168.601" y="109.047" width="16.9718" height="282.864" fill="white"/>
<rect x="210.464" y="109.047" width="16.9718" height="242.132" fill="white"/>
<rect x="224.042" y="334.205" width="105.225" height="16.9718" fill="white"/>
<rect x="185.573" y="374.938" width="184.427" height="16.9718" fill="white"/>
<rect x="353.028" y="391.91" width="16.9718" height="37.3381" fill="white"/>
<rect x="210.464" y="412.276" width="142.563" height="16.9718" fill="white"/>
</svg>
