<svg width="785" height="368" viewBox="0 0 785 368" fill="none" xmlns="http://www.w3.org/2000/svg">
<path d="M21 328C32.598 328 42 336.954 42 348C42 359.046 32.598 368 21 368C9.40202 368 0 359.046 0 348C0 336.954 9.40202 328 21 328ZM21.5254 334.691C14.4513 334.691 8.7168 340.426 8.7168 347.5C8.7168 354.574 14.4513 360.309 21.5254 360.309C28.5993 360.308 34.334 354.574 34.334 347.5C34.334 340.426 28.5993 334.692 21.5254 334.691Z" fill="#00265B"/>
<path d="M15 336.821C11.4022 339.016 9 342.977 9 347.5C9 347.667 9.00422 347.834 9.01074 348H0V42H15V336.821Z" fill="#00265B"/>
<path d="M193 260C204.046 260 213 268.954 213 280C213 291.046 204.046 300 193 300C181.954 300 173 291.046 173 280C173 268.954 181.954 260 193 260ZM193.5 267C186.596 267 181 272.596 181 279.5C181 286.404 186.596 292 193.5 292C200.404 292 206 286.404 206 279.5C206 272.596 200.404 267 193.5 267Z" fill="#00265B"/>
<path d="M120 30C131.046 30 140 38.9543 140 50C140 61.0457 131.046 70 120 70C108.954 70 100 61.0457 100 50C100 38.9543 108.954 30 120 30ZM120.5 37C113.596 37 108 42.5964 108 49.5C108 56.4036 113.596 62 120.5 62C127.404 62 133 56.4036 133 49.5C133 42.5964 127.404 37 120.5 37Z" fill="#00265B"/>
<rect y="27" width="87" height="15" fill="#00265B"/>
<rect x="113" y="66" width="15" height="181" fill="#00265B"/>
<rect x="128" y="232" width="85" height="15" fill="#00265B"/>
<rect x="35" y="66" width="52" height="15" fill="#00265B"/>
<rect x="35" y="73" width="15" height="250" fill="#00265B"/>
<rect x="72" y="73" width="15" height="214" fill="#00265B"/>
<rect x="84" y="272" width="93" height="15" fill="#00265B"/>
<rect x="50" y="308" width="163" height="15" fill="#00265B"/>
<rect x="198" y="323" width="15" height="33" fill="#00265B"/>
<rect x="72" y="341" width="126" height="15" fill="#00265B"/>
<path d="M222.339 207H167.388C166.945 207 166.724 206.723 166.724 206.17L166.89 89.5439C166.89 88.9906 167.166 88.7139 167.72 88.7139H186.646C187.199 88.7139 187.476 88.9906 187.476 89.5439L187.31 186.082H222.339C222.892 186.082 223.169 186.359 223.169 186.912V206.17C223.169 206.723 222.892 207 222.339 207ZM261.18 207H241.922C241.369 207 241.092 206.723 241.092 206.17L241.258 89.3779C241.258 88.9352 241.479 88.7139 241.922 88.7139H261.014C261.457 88.7139 261.678 88.9352 261.678 89.3779L261.844 206.17C261.844 206.723 261.623 207 261.18 207ZM302.096 207H285.079C284.194 207 283.751 206.613 283.751 205.838L283.585 90.042C283.585 89.1566 284.028 88.7139 284.913 88.7139H300.27L328.991 155.701L328.161 90.042C328.161 89.1566 328.659 88.7139 329.655 88.7139H346.505C347.169 88.7139 347.501 89.1566 347.501 90.042L347.667 206.004C347.667 206.668 347.391 207 346.837 207H331.896L302.428 144.412L303.673 205.672C303.673 206.557 303.148 207 302.096 207ZM400.537 206.834L370.073 207C369.519 207 369.243 206.723 369.243 206.17L369.575 89.3779C369.575 88.9352 369.796 88.7139 370.239 88.7139L402.031 88.5479C408.339 88.3818 414.039 89.8206 419.13 92.8643C424.277 95.9079 428.372 100.031 431.416 105.232C434.515 110.379 436.064 116.079 436.064 122.332V171.141C436.064 177.671 434.487 183.647 431.333 189.07C428.123 194.438 423.862 198.727 418.549 201.937C413.237 205.091 407.233 206.723 400.537 206.834ZM402.031 108.885L390.161 109.051L389.995 186.082H400.537C404.742 186.082 408.284 184.616 411.162 181.683C414.039 178.75 415.478 175.236 415.478 171.141V122.166C415.478 118.569 414.15 115.442 411.494 112.786C408.837 110.075 405.683 108.774 402.031 108.885ZM487.356 207H456.892C456.45 207 456.228 206.723 456.228 206.17L456.56 89.3779C456.56 88.9352 456.782 88.7139 457.224 88.7139H489.93C496.293 88.7139 502.076 90.2633 507.278 93.3623C512.369 96.4613 516.381 100.584 519.314 105.73C522.247 110.822 523.714 116.355 523.714 122.332C523.714 127.202 522.607 131.74 520.393 135.945C518.18 140.151 515.551 143.554 512.508 146.155C515.773 149.42 518.318 153.211 520.144 157.527C521.971 161.844 522.884 166.382 522.884 171.141C522.884 177.726 521.306 183.73 518.152 189.153C514.943 194.576 510.654 198.921 505.286 202.186C499.918 205.395 493.942 207 487.356 207ZM489.93 108.885H476.98V135.613H489.93C493.859 135.613 497.041 134.23 499.475 131.463C501.91 128.641 503.128 125.597 503.128 122.332C503.128 118.735 501.827 115.608 499.226 112.952C496.625 110.241 493.527 108.885 489.93 108.885ZM487.356 156.199H476.98L476.814 186.248H487.356C491.451 186.248 494.965 184.754 497.898 181.766C500.831 178.777 502.298 175.236 502.298 171.141C502.298 167.046 500.831 163.532 497.898 160.599C494.965 157.666 491.451 156.199 487.356 156.199ZM597.501 207H542.55C542.107 207 541.886 206.723 541.886 206.17L542.052 89.3779C542.052 88.9352 542.273 88.7139 542.716 88.7139H597.335C597.778 88.7139 597.999 88.9906 597.999 89.5439V108.553C597.999 108.995 597.778 109.217 597.335 109.217H562.472V135.779H597.335C597.778 135.779 597.999 136.001 597.999 136.443L598.165 155.701C598.165 156.144 597.944 156.365 597.501 156.365H562.472V186.082H597.501C597.944 186.082 598.165 186.359 598.165 186.912V206.336C598.165 206.779 597.944 207 597.501 207ZM639.994 207H620.737C620.294 207 620.072 206.723 620.072 206.17L620.404 89.3779C620.404 88.9352 620.626 88.7139 621.069 88.7139H655.434C661.576 88.7139 667.221 90.208 672.367 93.1963C677.514 96.1846 681.609 100.197 684.653 105.232C687.751 110.268 689.301 115.968 689.301 122.332C689.301 126.482 688.665 130.245 687.392 133.621C686.119 136.997 684.625 139.847 682.909 142.171C681.249 144.495 679.727 146.211 678.344 147.317C684.487 154.124 687.558 162.12 687.558 171.307L687.724 206.17C687.724 206.723 687.447 207 686.894 207H667.636C667.193 207 666.972 206.834 666.972 206.502V171.307C666.972 167.212 665.533 163.67 662.655 160.682C659.778 157.693 656.236 156.199 652.03 156.199H640.824L640.658 206.17C640.658 206.723 640.437 207 639.994 207ZM655.434 109.051H640.824V135.779H655.434C658.92 135.779 662.019 134.479 664.731 131.878C667.498 129.277 668.881 126.095 668.881 122.332C668.881 118.735 667.553 115.636 664.897 113.035C662.24 110.379 659.086 109.051 655.434 109.051ZM740.012 208.66C733.87 208.66 728.336 207.138 723.411 204.095C718.43 201.051 714.418 196.956 711.374 191.81C708.386 186.663 706.892 180.908 706.892 174.544V120.672C706.892 114.474 708.414 108.829 711.457 103.738C714.446 98.5918 718.458 94.4967 723.494 91.4531C728.529 88.3542 734.036 86.8047 740.012 86.8047C746.265 86.8047 751.91 88.2988 756.946 91.2871C761.981 94.3307 765.966 98.3981 768.899 103.489C771.887 108.58 773.381 114.308 773.381 120.672V128.475C773.381 128.917 773.105 129.139 772.551 129.139H753.459C753.017 129.139 752.795 128.917 752.795 128.475V122C752.795 117.684 751.578 114.114 749.143 111.292C746.708 108.47 743.664 107.059 740.012 107.059C736.747 107.059 733.842 108.414 731.296 111.126C728.751 113.838 727.478 117.02 727.478 120.672V174.544C727.478 178.252 728.723 181.461 731.213 184.173C733.703 186.829 736.636 188.157 740.012 188.157C743.664 188.157 746.708 186.857 749.143 184.256C751.578 181.6 752.795 178.362 752.795 174.544V166.16H740.925C740.316 166.16 740.012 165.883 740.012 165.33V146.321C740.012 145.768 740.316 145.491 740.925 145.491H772.717C773.16 145.491 773.381 145.768 773.381 146.321V174.544C773.381 180.908 771.887 186.663 768.899 191.81C765.855 196.956 761.843 201.051 756.863 204.095C751.882 207.138 746.265 208.66 740.012 208.66Z" fill="#00265B"/>
<path d="M261.488 332.328C256.663 332.328 252.214 331.089 248.141 328.609C244.112 326.13 240.88 322.832 238.445 318.715C236.055 314.553 234.859 309.993 234.859 305.035V298.793C234.859 298.306 235.081 298.062 235.523 298.062H250.797C251.151 298.062 251.328 298.306 251.328 298.793V305.035C251.328 308.001 252.324 310.569 254.316 312.738C256.309 314.863 258.699 315.926 261.488 315.926C264.322 315.926 266.734 314.841 268.727 312.672C270.719 310.458 271.715 307.913 271.715 305.035C271.715 301.715 269.546 298.815 265.207 296.336C264.499 295.893 263.569 295.362 262.418 294.742C261.311 294.078 259.983 293.326 258.434 292.484C256.884 291.643 255.379 290.824 253.918 290.027C252.457 289.186 251.04 288.389 249.668 287.637C244.71 284.715 241.013 281.062 238.578 276.68C236.188 272.253 234.992 267.294 234.992 261.805C234.992 256.758 236.232 252.198 238.711 248.125C241.19 244.096 244.422 240.909 248.406 238.562C252.435 236.172 256.796 234.977 261.488 234.977C266.314 234.977 270.741 236.172 274.77 238.562C278.798 240.997 282.008 244.229 284.398 248.258C286.833 252.286 288.051 256.802 288.051 261.805V272.961C288.051 273.315 287.874 273.492 287.52 273.492H272.246C271.892 273.492 271.715 273.315 271.715 272.961L271.582 261.805C271.582 258.617 270.586 256.027 268.594 254.035C266.602 252.043 264.233 251.047 261.488 251.047C258.699 251.047 256.309 252.109 254.316 254.234C252.324 256.359 251.328 258.883 251.328 261.805C251.328 264.771 251.948 267.25 253.188 269.242C254.471 271.234 256.796 273.138 260.16 274.953C260.514 275.13 261.333 275.573 262.617 276.281C263.901 276.99 265.318 277.786 266.867 278.672C268.461 279.513 269.9 280.288 271.184 280.996C272.467 281.66 273.242 282.059 273.508 282.191C278.023 284.715 281.587 287.814 284.199 291.488C286.855 295.163 288.184 299.678 288.184 305.035C288.184 310.215 286.988 314.863 284.598 318.98C282.163 323.098 278.931 326.352 274.902 328.742C270.874 331.133 266.402 332.328 261.488 332.328ZM328.221 332.328C323.396 332.328 318.947 331.089 314.874 328.609C310.845 326.13 307.591 322.832 305.112 318.715C302.677 314.553 301.46 309.993 301.46 305.035L301.592 261.938C301.592 256.891 302.81 252.353 305.245 248.324C307.635 244.251 310.867 240.997 314.94 238.562C319.013 236.083 323.44 234.844 328.221 234.844C333.18 234.844 337.629 236.061 341.569 238.496C345.553 240.931 348.741 244.207 351.131 248.324C353.566 252.397 354.784 256.935 354.784 261.938L354.917 305.035C354.917 309.993 353.721 314.531 351.331 318.648C348.896 322.81 345.664 326.13 341.635 328.609C337.607 331.089 333.135 332.328 328.221 332.328ZM328.221 315.926C330.966 315.926 333.357 314.819 335.393 312.605C337.43 310.348 338.448 307.824 338.448 305.035L338.315 261.938C338.315 258.927 337.363 256.382 335.46 254.301C333.556 252.22 331.143 251.18 328.221 251.18C325.432 251.18 323.042 252.198 321.049 254.234C319.057 256.271 318.061 258.839 318.061 261.938V305.035C318.061 308.001 319.057 310.569 321.049 312.738C323.042 314.863 325.432 315.926 328.221 315.926ZM415.142 331H371.181C370.827 331 370.65 330.779 370.65 330.336L370.782 237.035C370.782 236.592 371.004 236.371 371.446 236.371H386.587C387.03 236.371 387.251 236.592 387.251 237.035L387.118 314.266H415.142C415.584 314.266 415.806 314.487 415.806 314.93V330.336C415.806 330.779 415.584 331 415.142 331ZM455.179 332.328C450.398 332.328 445.971 331.089 441.898 328.609C437.825 326.13 434.571 322.81 432.136 318.648C429.746 314.443 428.55 309.861 428.55 304.902L428.816 236.902C428.816 236.548 428.993 236.371 429.347 236.371H444.621C444.975 236.371 445.152 236.548 445.152 236.902V304.902C445.152 307.957 446.126 310.569 448.074 312.738C450.022 314.863 452.39 315.926 455.179 315.926C458.101 315.926 460.536 314.863 462.484 312.738C464.432 310.569 465.406 307.957 465.406 304.902V236.902C465.406 236.548 465.583 236.371 465.937 236.371H481.211C481.565 236.371 481.742 236.548 481.742 236.902L482.008 304.902C482.008 309.905 480.812 314.509 478.422 318.715C475.987 322.876 472.755 326.197 468.726 328.676C464.698 331.111 460.182 332.328 455.179 332.328ZM527.158 331H511.819C511.42 331 511.221 330.779 511.221 330.336V252.773H493.557C493.114 252.773 492.893 252.552 492.893 252.109L493.026 236.902C493.026 236.548 493.203 236.371 493.557 236.371H545.221C545.708 236.371 545.951 236.548 545.951 236.902V252.109C545.951 252.552 545.774 252.773 545.42 252.773H527.557L527.69 330.336C527.69 330.779 527.513 331 527.158 331ZM574.102 331H558.696C558.253 331 558.032 330.779 558.032 330.336L558.165 236.902C558.165 236.548 558.342 236.371 558.696 236.371H573.97C574.324 236.371 574.501 236.548 574.501 236.902L574.634 330.336C574.634 330.779 574.457 331 574.102 331ZM617.195 332.328C612.369 332.328 607.92 331.089 603.847 328.609C599.818 326.13 596.564 322.832 594.085 318.715C591.65 314.553 590.433 309.993 590.433 305.035L590.566 261.938C590.566 256.891 591.783 252.353 594.218 248.324C596.609 244.251 599.841 240.997 603.913 238.562C607.986 236.083 612.413 234.844 617.195 234.844C622.153 234.844 626.602 236.061 630.542 238.496C634.527 240.931 637.714 244.207 640.105 248.324C642.54 252.397 643.757 256.935 643.757 261.938L643.89 305.035C643.89 309.993 642.695 314.531 640.304 318.648C637.869 322.81 634.637 326.13 630.609 328.609C626.58 331.089 622.109 332.328 617.195 332.328ZM617.195 315.926C619.939 315.926 622.33 314.819 624.367 312.605C626.403 310.348 627.421 307.824 627.421 305.035L627.288 261.938C627.288 258.927 626.337 256.382 624.433 254.301C622.529 252.22 620.117 251.18 617.195 251.18C614.406 251.18 612.015 252.198 610.023 254.234C608.031 256.271 607.035 258.839 607.035 261.938V305.035C607.035 308.001 608.031 310.569 610.023 312.738C612.015 314.863 614.406 315.926 617.195 315.926ZM674.432 331H660.818C660.11 331 659.756 330.69 659.756 330.07L659.623 237.434C659.623 236.725 659.977 236.371 660.685 236.371H672.971L695.947 289.961L695.283 237.434C695.283 236.725 695.682 236.371 696.478 236.371H709.959C710.49 236.371 710.756 236.725 710.756 237.434L710.889 330.203C710.889 330.734 710.667 331 710.225 331H698.271L674.697 280.93L675.693 329.938C675.693 330.646 675.273 331 674.432 331ZM751.258 332.328C746.433 332.328 741.984 331.089 737.911 328.609C733.882 326.13 730.65 322.832 728.215 318.715C725.825 314.553 724.629 309.993 724.629 305.035V298.793C724.629 298.306 724.851 298.062 725.293 298.062H740.567C740.921 298.062 741.098 298.306 741.098 298.793V305.035C741.098 308.001 742.094 310.569 744.086 312.738C746.079 314.863 748.469 315.926 751.258 315.926C754.092 315.926 756.504 314.841 758.497 312.672C760.489 310.458 761.485 307.913 761.485 305.035C761.485 301.715 759.316 298.815 754.977 296.336C754.269 295.893 753.339 295.362 752.188 294.742C751.081 294.078 749.753 293.326 748.204 292.484C746.654 291.643 745.149 290.824 743.688 290.027C742.227 289.186 740.81 288.389 739.438 287.637C734.48 284.715 730.783 281.062 728.348 276.68C725.957 272.253 724.762 267.294 724.762 261.805C724.762 256.758 726.002 252.198 728.481 248.125C730.96 244.096 734.192 240.909 738.176 238.562C742.205 236.172 746.566 234.977 751.258 234.977C756.084 234.977 760.511 236.172 764.54 238.562C768.568 240.997 771.778 244.229 774.168 248.258C776.603 252.286 777.821 256.802 777.821 261.805V272.961C777.821 273.315 777.644 273.492 777.29 273.492H762.016C761.662 273.492 761.485 273.315 761.485 272.961L761.352 261.805C761.352 258.617 760.356 256.027 758.364 254.035C756.372 252.043 754.003 251.047 751.258 251.047C748.469 251.047 746.079 252.109 744.086 254.234C742.094 256.359 741.098 258.883 741.098 261.805C741.098 264.771 741.718 267.25 742.957 269.242C744.241 271.234 746.566 273.138 749.93 274.953C750.284 275.13 751.103 275.573 752.387 276.281C753.671 276.99 755.088 277.786 756.637 278.672C758.231 279.513 759.67 280.288 760.954 280.996C762.237 281.66 763.012 282.059 763.278 282.191C767.793 284.715 771.357 287.814 773.969 291.488C776.625 295.163 777.954 299.678 777.954 305.035C777.954 310.215 776.758 314.863 774.368 318.98C771.933 323.098 768.701 326.352 764.672 328.742C760.644 331.133 756.172 332.328 751.258 332.328Z" fill="#00265B"/>
</svg>
