<svg width="241" height="386" viewBox="0 0 241 386" fill="none" xmlns="http://www.w3.org/2000/svg">
<path d="M23.7607 340.568C36.8831 340.568 47.5212 350.699 47.5215 363.196C47.5215 375.694 36.8833 385.826 23.7607 385.826C10.6381 385.826 0 375.694 0 363.196C0.000272668 350.699 10.6383 340.568 23.7607 340.568ZM24.3535 348.138C16.3497 348.138 9.86133 354.627 9.86133 362.631C9.86145 370.635 16.3498 377.123 24.3535 377.123C32.3574 377.123 38.8466 370.635 38.8467 362.631C38.8467 354.627 32.3575 348.138 24.3535 348.138Z" fill="white"/>
<path d="M16.9717 350.548C12.9007 353.031 10.1826 357.514 10.1826 362.631C10.1826 362.821 10.1879 363.01 10.1953 363.198H0V16.972H16.9717V350.548Z" fill="white"/>
<path d="M218.37 263.626C230.868 263.626 240.999 273.757 240.999 286.255C240.999 298.753 230.868 308.885 218.37 308.885C205.872 308.885 195.741 298.753 195.741 286.255C195.741 273.757 205.873 263.626 218.37 263.626ZM218.937 271.547C211.125 271.547 204.793 277.879 204.793 285.69C204.793 293.501 211.126 299.833 218.937 299.833C226.747 299.833 233.079 293.501 233.079 285.69C233.079 277.879 226.748 271.547 218.937 271.547Z" fill="white"/>
<path d="M135.774 3.39468C148.272 3.39468 158.403 13.526 158.403 26.0236C158.403 38.5213 148.272 48.6525 135.774 48.6525C123.277 48.6524 113.146 38.5212 113.146 26.0236C113.146 13.526 123.277 3.3948 135.774 3.39468ZM136.34 11.3146C128.529 11.3149 122.197 17.6464 122.197 25.4572C122.197 33.2681 128.529 39.6005 136.34 39.6007C144.151 39.6007 150.483 33.2683 150.483 25.4572C150.483 17.6463 144.151 11.3146 136.34 11.3146Z" fill="white"/>
<rect width="98.4366" height="16.9718" fill="white"/>
<rect x="127.854" y="44.1269" width="16.9718" height="204.794" fill="white"/>
<rect x="144.826" y="231.945" width="96.1738" height="16.9718" fill="white"/>
<rect x="39.6006" y="44.1269" width="58.8357" height="16.9718" fill="white"/>
<rect x="39.6006" y="52.0471" width="16.9718" height="282.864" fill="white"/>
<rect x="81.4645" y="52.0471" width="16.9718" height="242.132" fill="white"/>
<rect x="95.0418" y="277.205" width="105.225" height="16.9718" fill="white"/>
<rect x="56.5728" y="317.938" width="184.427" height="16.9718" fill="white"/>
<rect x="224.028" y="334.91" width="16.9718" height="37.3381" fill="white"/>
<rect x="81.4644" y="355.276" width="142.563" height="16.9718" fill="white"/>
</svg>
